<svg width="24" height="24" viewBox="0 0 24 24" fill="none" xmlns="http://www.w3.org/2000/svg">
<path d="M8.12004 9.28995L12 13.1699L15.88 9.28995C15.9726 9.19736 16.0825 9.12392 16.2035 9.07382C16.3245 9.02371 16.4541 8.99792 16.585 8.99792C16.716 8.99792 16.8456 9.02371 16.9666 9.07382C17.0875 9.12392 17.1975 9.19736 17.29 9.28995C17.3826 9.38253 17.4561 9.49244 17.5062 9.6134C17.5563 9.73437 17.5821 9.86401 17.5821 9.99495C17.5821 10.1259 17.5563 10.2555 17.5062 10.3765C17.4561 10.4975 17.3826 10.6074 17.29 10.6999L12.7 15.2899C12.6075 15.3826 12.4976 15.4562 12.3767 15.5064C12.2557 15.5566 12.126 15.5824 11.995 15.5824C11.8641 15.5824 11.7344 15.5566 11.6134 15.5064C11.4924 15.4562 11.3826 15.3826 11.29 15.2899L6.70004 10.6999C6.60733 10.6074 6.53379 10.4975 6.4836 10.3766C6.43342 10.2556 6.40759 10.1259 6.40759 9.99495C6.40759 9.86398 6.43342 9.73429 6.4836 9.61332C6.53379 9.49235 6.60733 9.38246 6.70004 9.28995C7.09004 8.90995 7.73004 8.89995 8.12004 9.28995V9.28995Z" fill="black"/>
</svg>
