<svg width="24" height="24" viewBox="0 0 24 24" fill="none" xmlns="http://www.w3.org/2000/svg">
<path d="M20.55 3.67505C20.55 3.45005 20.475 3.30005 20.325 3.15005C20.175 3.00005 20.025 2.92505 19.8 2.92505C19.575 2.92505 19.425 3.00005 19.275 3.15005L17.25 5.17505C15.75 4.42505 14.025 3.97505 12 3.75005C8.25 4.12505 5.25 5.47505 3.15 7.87505C1.05 10.275 0 11.625 0 12C0 12.375 1.125 13.725 3.15 16.1251C3.675 16.7251 4.2 17.2501 4.875 17.7001L2.85 19.8001C2.7 19.9501 2.625 20.1001 2.625 20.3251C2.625 20.5501 2.7 20.7 2.85 20.85C3 21 3.15 21.0751 3.375 21.0751C3.6 21.0751 3.75 21 3.9 20.85L20.4 4.20005C20.475 4.05005 20.55 3.90005 20.55 3.67505V3.67505ZM5.4 16.05C3.6 14.4 2.4 13.05 1.8 12C2.475 10.875 3.675 9.52505 5.4 7.95005C7.125 6.37505 9.375 5.40005 12 5.25005C13.5 5.32505 14.925 5.70005 16.125 6.30005L14.85 7.57505C14.025 7.05005 13.125 6.75005 12 6.75005C10.5 6.75005 9.3 7.27505 8.25 8.25005C7.2 9.22505 6.75 10.5 6.75 12C6.75 13.125 7.05 14.1 7.575 14.925L6 16.5751C5.775 16.4251 5.55 16.2 5.4 16.05V16.05ZM8.7 13.8C8.4 13.275 8.25 12.675 8.25 12C8.25 10.95 8.625 10.05 9.375 9.37505C10.125 8.70005 10.95 8.25005 12 8.25005C12.675 8.25005 13.275 8.40005 13.725 8.70005L8.7 13.8ZM20.85 7.87505C20.55 7.50005 20.175 7.20005 19.875 6.90005L18.75 8.02505C20.475 9.60005 21.675 10.95 22.275 12C21.6 13.125 20.4 14.475 18.675 16.05C16.95 17.625 14.625 18.6001 12 18.7501C10.8 18.6751 9.67498 18.4501 8.69998 18.0751L7.57498 19.2001C8.92498 19.7251 10.35 20.1001 12 20.2501C15.75 19.8751 18.75 18.5251 20.85 16.1251C22.95 13.725 24 12.375 24 12C24 11.625 22.875 10.275 20.85 7.87505V7.87505Z" fill="#617C65"/>
<path d="M11.9999 15.75C11.6999 15.75 11.3999 15.675 11.0999 15.6L9.8999 16.8C10.5749 17.1 11.2499 17.25 11.9999 17.25C13.4999 17.25 14.6999 16.725 15.7499 15.75C16.7249 14.775 17.2499 13.5 17.2499 12C17.2499 11.25 17.0999 10.5 16.7999 9.90002L15.5999 11.1C15.6749 11.4 15.7499 11.7 15.7499 12C15.7499 13.05 15.3749 13.95 14.6249 14.625C13.8749 15.3 13.0499 15.75 11.9999 15.75V15.75Z" fill="#617C65"/>
</svg>
