<svg width="24" height="24" viewBox="0 0 24 24" fill="none" xmlns="http://www.w3.org/2000/svg">
<path d="M20.6719 12.3656L20.6437 12.3937L16.7156 16.3312C16.6089 16.4387 16.4639 16.4993 16.3125 16.5C16.2024 16.4985 16.0952 16.4646 16.0041 16.4027C15.9131 16.3408 15.8422 16.2535 15.8003 16.1517C15.7583 16.0499 15.7472 15.938 15.7683 15.83C15.7893 15.7219 15.8417 15.6224 15.9188 15.5438L18.8906 12.5625H9.75C9.60082 12.5625 9.45774 12.5032 9.35225 12.3977C9.24676 12.2923 9.1875 12.1492 9.1875 12C9.1875 11.8508 9.24676 11.7077 9.35225 11.6023C9.45774 11.4968 9.60082 11.4375 9.75 11.4375H18.8906L15.9188 8.45625C15.8654 8.40546 15.823 8.34438 15.794 8.27669C15.765 8.20901 15.75 8.13614 15.75 8.0625C15.75 7.98886 15.765 7.91599 15.794 7.84831C15.823 7.78062 15.8654 7.71954 15.9188 7.66875C15.9704 7.61516 16.0322 7.57253 16.1007 7.54341C16.1692 7.51429 16.2428 7.49928 16.3172 7.49928C16.3916 7.49928 16.4652 7.51429 16.5337 7.54341C16.6021 7.57253 16.664 7.61516 16.7156 7.66875L20.6437 11.6063L20.6719 11.6344L20.6906 11.6531C20.7096 11.6759 20.7253 11.7011 20.7375 11.7281H20.7469C20.7888 11.8093 20.8107 11.8993 20.8107 11.9906C20.8107 12.082 20.7888 12.172 20.7469 12.2531H20.7375C20.7253 12.2801 20.7096 12.3054 20.6906 12.3281L20.6719 12.3656ZM9.75 19.6875H4.5C4.45027 19.6875 4.40258 19.6677 4.36742 19.6326C4.33225 19.5974 4.3125 19.5497 4.3125 19.5V4.5C4.3125 4.45027 4.33225 4.40258 4.36742 4.36742C4.40258 4.33225 4.45027 4.3125 4.5 4.3125H9.75C9.89918 4.3125 10.0423 4.25324 10.1477 4.14775C10.2532 4.04226 10.3125 3.89918 10.3125 3.75C10.3125 3.60082 10.2532 3.45774 10.1477 3.35225C10.0423 3.24676 9.89918 3.1875 9.75 3.1875H4.5C4.1519 3.1875 3.81806 3.32578 3.57192 3.57192C3.32578 3.81806 3.1875 4.1519 3.1875 4.5V19.5C3.1875 19.8481 3.32578 20.1819 3.57192 20.4281C3.81806 20.6742 4.1519 20.8125 4.5 20.8125H9.75C9.89918 20.8125 10.0423 20.7532 10.1477 20.6477C10.2532 20.5423 10.3125 20.3992 10.3125 20.25C10.3125 20.1008 10.2532 19.9577 10.1477 19.8523C10.0423 19.7468 9.89918 19.6875 9.75 19.6875Z" fill="black"/>
</svg>
