<svg id="Layer_1" data-name="Layer 1" xmlns="http://www.w3.org/2000/svg" viewBox="0 0 415.48 659.87"><defs><style>.cls-1{fill:#009245;}.cls-2{fill:#8cc63f;}.cls-3{fill:#0a0708;}</style></defs><title>Untitled-2</title><path class="cls-1" d="M767,499.38a10.54,10.54,0,0,0,3.24,1.31c6.87,1.29,49.33-6.86,74.87-17.27,10.22-4.16,14.72-8.29,16.72-11.27H755.65v6.53C755.65,487.43,760,495.36,767,499.38Z" transform="translate(-542.03 -172.13)"/><path class="cls-1" d="M654.4,483.42c25.54,10.41,68,18.5,74.86,17.28a11,11,0,0,0,3.25-1.32c7-4,11.37-11.95,11.37-20.7v-6.53H637.68C639.67,475.13,644.17,479.26,654.4,483.42Z" transform="translate(-542.03 -172.13)"/><path class="cls-1" d="M601.7,478.62a127.27,127.27,0,0,0,14.57,5.63c.13-4.15.36-8.21.69-12.21a48.66,48.66,0,0,1-28.69-11.77A36.19,36.19,0,0,0,601.7,478.62Z" transform="translate(-542.03 -172.13)"/><path class="cls-1" d="M883.26,484.25a126.9,126.9,0,0,0,14.56-5.62,36.33,36.33,0,0,0,13.44-18.35A48.73,48.73,0,0,1,882.58,472Q883.06,478,883.26,484.25Z" transform="translate(-542.03 -172.13)"/><path class="cls-2" d="M576.51,462.25a48.3,48.3,0,0,1-.61-24.74c10.38-43.11,48.11-143.4,173.87-143.4S913.25,394.4,923.64,437.51a48.23,48.23,0,0,1-.62,24.75,57.53,57.53,0,0,0,14.65-20.82c8.59-21.72,1.84-48.8-20.06-80.49-70-101.29-119.49-167.68-167.84-167.68S651.92,259.66,581.93,361c-21.9,31.69-28.65,58.77-20.06,80.49A57.26,57.26,0,0,0,576.51,462.25Z" transform="translate(-542.03 -172.13)"/><path class="cls-1" d="M615.73,516.65c0-.84,0-1.65,0-2.49-16.69,29.15-47.24,85.05-58.06,121.37,22.18,7.37,41.71,35.36,49.77,48.32a290.82,290.82,0,0,0,23.6-26.18C614,606.94,614.91,557.61,615.73,516.65Z" transform="translate(-542.03 -172.13)"/><path class="cls-2" d="M944.65,647c-17.58,6.3-35.66,31.36-43.93,45.18l1.23,1.15c7.69,7,16,9.22,23.48,6.11C937,694.61,945,678.36,945.73,658A51.14,51.14,0,0,0,944.65,647Z" transform="translate(-542.03 -172.13)"/><path class="cls-1" d="M941.81,635.53c-10.81-36.32-41.37-92.22-58.06-121.37,0,.84,0,1.65,0,2.49.82,41,1.78,90.29-15.35,141A288.58,288.58,0,0,0,892,683.85C900.1,670.89,919.63,642.9,941.81,635.53Z" transform="translate(-542.03 -172.13)"/><path class="cls-2" d="M554.88,647a50.44,50.44,0,0,0-1.07,11c.77,20.33,8.74,36.58,20.29,41.4,7.45,3.1,15.79.93,23.48-6.11l1.23-1.15C590.54,678.35,572.46,653.3,554.88,647Z" transform="translate(-542.03 -172.13)"/><path class="cls-1" d="M749.77,730.33a22.21,22.21,0,0,0-22.19,22.18v54.93a22.19,22.19,0,0,0,44.37,0V752.51A22.21,22.21,0,0,0,749.77,730.33Z" transform="translate(-542.03 -172.13)"/><path class="cls-2" d="M872,516.89c-.17-8.64-.34-17-.34-24.95,0-4.33-.12-8.62-.34-12.82-3.48,4.91-9.91,10.35-21.79,15.19-16,6.52-41.08,13.07-59.69,16.25V644.07a14.77,14.77,0,1,1-11.76,0V512.19c-2.31.22-4.4.35-6.15.35a19.15,19.15,0,0,1-10.78-3,33.34,33.34,0,0,1-11.42-11,33.52,33.52,0,0,1-11.42,11,19.19,19.19,0,0,1-10.79,3c-1.75,0-3.84-.13-6.15-.35V626.05a14.78,14.78,0,1,1-11.76,0V510.56C691,507.38,666,500.83,650,494.31c-11.87-4.84-18.31-10.28-21.79-15.19q-.33,6.3-.34,12.82c0,8-.16,16.31-.34,24.95-1.47,73.23-3.28,163.77,88.33,245.69V752.51a33.95,33.95,0,0,1,67.89,0v10.07C875.32,680.66,873.51,590.12,872,516.89Z" transform="translate(-542.03 -172.13)"/><rect class="cls-3" x="167.62" y="325.17" width="11.76" height="132.92"/><circle class="cls-3" cx="173.5" cy="458.08" r="14.78"/><rect class="cls-3" x="236.1" y="325.17" width="11.76" height="150.94"/><circle class="cls-3" cx="241.98" cy="476.11" r="14.78"/><path class="cls-3" d="M580.94,703.2a29.35,29.35,0,0,1-11.37-2.3c-16-6.68-26.55-26.53-27.52-51.8-1.62-42.67,71.75-164.42,74.87-169.58L627,485.6c-.74,1.24-74.67,123.88-73.17,163,.77,20.33,8.74,36.57,20.29,41.4,7.45,3.09,15.79.93,23.48-6.12,23.22-21.28,35.55-38.31,35.67-38.49l9.56,6.86c-.52.73-13.09,18.12-37.28,40.3C597.91,699.58,589.36,703.2,580.94,703.2Z" transform="translate(-542.03 -172.13)"/><path class="cls-3" d="M601.09,686.72c-7.6-13.83-32-49.9-53.36-50.63l.4-11.75c32.42,1.1,62,54.46,63.27,56.73Z" transform="translate(-542.03 -172.13)"/><path class="cls-3" d="M717.94,770.56C612.2,682.87,614.24,581.38,615.73,507.27c.18-8.56.34-16.81.34-24.71a237.93,237.93,0,0,1,1.41-26.33l11.69,1.3a226.62,226.62,0,0,0-1.34,25c0,8-.16,16.31-.34,24.95-1.52,75.71-3.41,169.93,98,254Z" transform="translate(-542.03 -172.13)"/><path class="cls-3" d="M918.59,703.2c-8.41,0-17-3.62-24.59-10.6-24.19-22.18-36.75-39.57-37.28-40.3l9.56-6.86c.12.18,12.45,17.21,35.67,38.49,7.69,7.05,16,9.23,23.48,6.12C937,685.22,945,669,945.73,648.65c1.49-39.17-72.43-161.81-73.18-163l10.06-6.08c3.12,5.16,76.5,126.91,74.87,169.58-1,25.27-11.51,45.12-27.52,51.8A29.39,29.39,0,0,1,918.59,703.2Z" transform="translate(-542.03 -172.13)"/><path class="cls-3" d="M898.44,686.72l-10.31-5.65c1.25-2.27,30.85-55.63,63.27-56.73l.4,11.75C930.43,636.82,906,672.89,898.44,686.72Z" transform="translate(-542.03 -172.13)"/><path class="cls-3" d="M781.59,770.56l-7.51-9c101.38-84.07,99.48-178.29,98-254-.17-8.64-.34-17-.34-24.95a227,227,0,0,0-1.34-25l11.69-1.3a238.33,238.33,0,0,1,1.41,26.33c0,7.9.17,16.15.34,24.71C885.29,581.38,887.33,682.87,781.59,770.56Z" transform="translate(-542.03 -172.13)"/><path class="cls-3" d="M749.77,832a34,34,0,0,1-33.95-34V743.13a33.95,33.95,0,0,1,67.89,0v54.92A34,34,0,0,1,749.77,832Zm0-111a22.21,22.21,0,0,0-22.19,22.18v54.92a22.19,22.19,0,1,0,44.37,0V743.13A22.21,22.21,0,0,0,749.77,721Z" transform="translate(-542.03 -172.13)"/><path class="cls-3" d="M916.2,422.19c-.19-.19-.3-.39-.47-.58A37.22,37.22,0,0,1,879.39,451H620.14a37.2,37.2,0,0,1-35.72-27q-1.38,2-2.6,4a102.62,102.62,0,0,0-4.67,9.18,49,49,0,0,0,43,25.59H879.39a49,49,0,0,0,43-25.66C921.48,431.55,919.93,426,916.2,422.19Z" transform="translate(-542.03 -172.13)"/><path class="cls-3" d="M878.81,488.31l-2.46-11.5c.47-.1,47.85-10.71,61.32-44.75,8.59-21.72,1.84-48.8-20.06-80.49-70-101.29-119.49-167.68-167.84-167.68s-97.85,66.39-167.84,167.68c-21.9,31.69-28.65,58.77-20.06,80.49,13.46,34,60.84,44.65,61.32,44.75l-2.47,11.5c-2.19-.47-53.94-12-69.77-51.87-10.15-25.6-3-56.41,21.3-91.56,72.11-104.35,123.43-172.75,177.52-172.75s105.4,68.4,177.51,172.75c24.29,35.15,31.46,66,21.3,91.56C932.75,476.34,881,487.84,878.81,488.31Z" transform="translate(-542.03 -172.13)"/><path class="cls-3" d="M904,479.27l-6.66-9.7.29-.2a36.7,36.7,0,0,0,14.54-38.49c-12.08-50.19-49.26-134.39-162.43-134.39s-150.35,84.2-162.44,134.39a36.7,36.7,0,0,0,14.48,38.45l-6.31,9.94-.48-.34a48.51,48.51,0,0,1-19.12-50.8C586.28,385,624,284.73,749.77,284.73S913.25,385,923.64,428.13A48.54,48.54,0,0,1,904.45,479Z" transform="translate(-542.03 -172.13)"/><path class="cls-3" d="M727.56,503.15c-15.48,0-55.36-9.16-77.6-18.22-29.65-12.08-25.72-28-25.17-29.78L636,458.61a1.29,1.29,0,0,0,.08-.32c0,.08-1.08,7.85,18.29,15.75,25.54,10.41,68,18.5,74.86,17.27a10.41,10.41,0,0,0,3.25-1.32c7-4,11.37-11.94,11.37-20.7V456.88h11.77v12.41c0,13-6.63,24.81-17.3,30.91a19,19,0,0,1-10.79,2.95Z" transform="translate(-542.03 -172.13)"/><path class="cls-3" d="M772,503.15a21.23,21.23,0,0,1-3.79-.27,22.15,22.15,0,0,1-7-2.68c-10.67-6.1-17.3-17.95-17.3-30.91V456.88h11.76v12.41c0,8.76,4.36,16.69,11.38,20.7a10.39,10.39,0,0,0,3.24,1.32c6.87,1.28,49.33-6.87,74.87-17.27,19.37-7.9,18.29-15.67,18.28-15.75l5.7-1.41,5.62-1.73c.55,1.78,4.49,17.7-25.17,29.78C827.34,494,787.46,503.15,772,503.15Z" transform="translate(-542.03 -172.13)"/><circle class="cls-3" cx="156.98" cy="188.05" r="18.33"/><circle class="cls-3" cx="257.38" cy="188.05" r="18.33"/><path class="cls-3" d="M717.33,411.57c12.21,3.3,22.12,5.89,32,5.86a61.7,61.7,0,0,0,14.93-1.53c5.27-.89,10.44-2.86,16.81-4.33a32.72,32.72,0,0,1-12.81,14,35,35,0,0,1-19.1,5.17,37.73,37.73,0,0,1-18.9-5.33C724.78,422,720,417.51,717.33,411.57Z" transform="translate(-542.03 -172.13)"/></svg>