<?xml version="1.0" encoding="utf-8"?>
<!-- Generator: Adobe Illustrator 24.0.0, SVG Export Plug-In . SVG Version: 6.00 Build 0)  -->
<svg version="1.1" id="Layer_1" xmlns="http://www.w3.org/2000/svg" xmlns:xlink="http://www.w3.org/1999/xlink" x="0px" y="0px"
	 viewBox="0 0 1000 1000" style="enable-background:new 0 0 1000 1000;" xml:space="preserve">
<style type="text/css">
	.st0{fill:#009245;}
	.st1{fill:#8CC63F;}
	.st2{fill:#0A0708;}
</style>
<g>
	<g>
		<g>
			<g>
				<path class="st0" d="M336.81,509.36c-0.78-0.17-3.87-0.88-8.49-2.27c-0.42,5.65-0.69,11.46-0.82,17.41l30.88-6.46
					c-4.67-1.62-9.14-3.28-13.3-4.98C342.1,511.85,339.36,510.62,336.81,509.36z"/>
				<path class="st1" d="M296.43,463.75c2.3,6.2,5.94,11.87,10.67,16.6c-1.17-4.21-1-7.63-0.67-9.68
					C302.87,468.69,299.52,466.37,296.43,463.75z"/>
				<path class="st0" d="M437.3,501.73c6.17-9.61,14.56-17.65,24.47-23.34H337.09c-5.03,0-9.91-0.64-14.59-1.78
					c1.53,4.9,7.4,13.87,29.06,22.7c11.2,4.56,24.25,8.79,37.53,12.5L437.3,501.73z"/>
				<path class="st1" d="M281.1,464.63c-2.9-10.01-3.31-20.79-0.78-31.28C293.43,378.88,341.1,252.16,500,252.16
					c158.9,0,206.57,126.71,219.69,181.19c2.53,10.49,2.12,21.27-0.78,31.28c7.72-7.19,14.38-15.87,18.51-26.31
					c10.85-27.44,2.32-61.66-25.35-101.7C623.63,208.64,561.1,124.76,500,124.76c-61.09,0-123.63,83.88-212.06,211.86
					c-27.67,40.05-36.2,74.26-25.35,101.7C266.71,448.76,273.38,457.44,281.1,464.63z"/>
				<path class="st0" d="M678.37,476.61c-4.68,1.14-9.56,1.78-14.59,1.78H530.61c16.59,9.47,28.94,25.45,33.62,44.45
					c25.43-4.65,59.92-13.28,85.08-23.53C670.97,490.48,676.84,481.51,678.37,476.61z"/>
				<path class="st1" d="M631,610.18c2.65-1.74,5.56-3.18,8.8-4.23c7.76-2.53,16.8-2.77,26.3-1.57c4.17-24.28,6.5-48.68,6.5-72.26
					c0-8.61-0.32-16.98-0.92-25.03c-4.63,1.4-7.72,2.11-8.5,2.28c-2.55,1.25-5.29,2.49-8.27,3.71
					c-25.16,10.26-61.06,19.56-88.67,24.51c0.02,0.71,0.11,1.4,0.11,2.12c0,10.53-2.38,20.49-6.53,29.47L631,610.18z"/>
				<path class="st1" d="M617.89,626.52c0.75-1.87,1.65-3.59,2.62-5.24l-54.16-31.2v61.28c10.4,3.19,18,12.76,18,24.2
					c0,14.05-11.39,25.43-25.43,25.43c-14.05,0-25.43-11.39-25.43-25.43c0-11.44,7.61-21.01,18-24.2v-68.49
					c-12.92,16.65-33.06,27.42-55.72,27.42c-5.96,0-11.72-0.81-17.24-2.23l30.44,145.61L402.07,776
					c15.42,20.98,32.66,37.79,51.19,48.63v-18.36c0-25.77,20.97-46.74,46.74-46.74c25.77,0,46.74,20.97,46.74,46.74v18.42
					c34.75-20.31,65-61.69,87.13-111.99c-0.24-0.34-0.48-0.66-0.72-1.01C613.68,683.03,607.97,651.19,617.89,626.52z"/>
				<path class="st1" d="M703.56,463.8c-3.08,2.61-6.43,4.92-9.98,6.89c0.32,2.06,0.49,5.46-0.67,9.66
					C697.62,475.63,701.26,469.98,703.56,463.8z"/>
				<path class="st1" d="M740.53,649.38c-20.28-12.19-70.72-37.58-96.12-29.31c-6.13,2-10.29,5.93-12.73,12
					c-8.07,20.07-2.92,46.71,13.77,71.27c14.49,21.31,34.56,35.6,50,35.6c0.05,0,0.09,0,0.14,0l0.32,0.04
					c19.87,0.74,38.73-20.97,46.32-52.78C744.63,676.1,743.66,663.37,740.53,649.38z"/>
				<path class="st0" d="M500,774.39c-17.58,0-31.88,14.3-31.88,31.88v57.96c0,17.58,14.3,31.88,31.88,31.88h0
					c17.58,0,31.88-14.3,31.88-31.88v-57.96C531.88,788.69,517.58,774.39,500,774.39z"/>
				<path class="st0" d="M734.88,629.18c-11.91-36.19-33.39-76.13-47.45-100.41c0.01,1.12,0.04,2.22,0.04,3.34
					c0,24.49-2.4,49.84-6.84,75.06C700.82,612.3,721.28,621.97,734.88,629.18z"/>
				<path class="st0" d="M289.52,603.41l-4.66-22.29c-5.51,11.56-10.79,23.61-15.28,35.51
					C275.63,611.47,282.47,606.64,289.52,603.41z"/>
				<path class="st1" d="M307.11,614.41c-13.7-1.88-35.9,19.26-47.34,33.7c-3.36,14.49-4.48,27.68-2,38.07
					c7.59,31.82,26.71,53.66,46.32,52.78l0.32-0.04c6.85,0.17,12.26-3.04,16.59-9.4c13.41-19.73,12.56-66.67-1.86-102.52
					C314.5,615.45,308.94,614.67,307.11,614.41z"/>
			</g>
			<path class="st2" d="M714.4,424.06c-0.54-0.88-1.14-1.73-1.72-2.58c-0.16-0.15-0.44-0.44-0.87-0.89c-0.95-1-1.74-2.08-2.49-3.18
				c-5.07,20.46-23.54,35.7-45.54,35.7H336.22c-23.93,0-43.7-18.01-46.57-41.18c-0.6,2.19-1.07,4.39-1.56,6.61
				c-0.08,0.49-0.13,0.8-0.19,1.12c-0.14,1.42-0.27,2.85-0.37,4.27c-0.39,5.11-2.01,9.67-4.6,13.4
				c10.75,18.29,30.58,30.63,53.28,30.63h327.56c24.36,0,45.41-14.19,55.48-34.71c-0.2-0.42-0.38-0.85-0.59-1.27
				C717.35,429.29,715.97,426.62,714.4,424.06z"/>
			<path class="st2" d="M663.05,498.96l-3.12-14.53c0.6-0.13,60.47-13.52,77.48-56.54c10.85-27.44,2.32-61.66-25.35-101.7
				C623.63,198.21,561.1,114.32,500,114.32c-61.09,0-123.63,83.88-212.06,211.86c-27.67,40.05-36.2,74.26-25.35,101.7
				c17.02,43.02,76.88,56.41,77.48,56.54l-3.12,14.53c-2.77-0.59-68.15-15.12-88.15-65.54c-12.83-32.35-3.78-71.27,26.92-115.69
				C366.82,185.89,431.65,99.46,500,99.46c68.35,0,133.18,86.42,224.29,218.27c30.69,44.41,39.75,83.34,26.92,115.69
				C731.2,483.84,665.82,498.37,663.05,498.96z"/>
			<path class="st2" d="M694.91,487.53l-8.41-12.25l0.44-0.3c15.36-10.72,22.71-30.25,18.29-48.58
				C689.97,362.98,643,256.59,500,256.59S310.03,362.98,294.76,426.4c-4.42,18.33,2.94,37.86,18.3,48.58l-7.97,12.55l-0.53-0.37
				c-20.33-14.19-30.08-40.01-24.24-64.25C293.43,368.44,341.1,241.73,500,241.73c158.9,0,206.57,126.71,219.69,181.19
				c5.84,24.23-3.91,50.05-24.24,64.25L694.91,487.53z"/>
			<g>
				<g>
					<path class="st2" d="M402.62,505.19c-18.02-4.5-36.68-10.09-51.93-16.31c-31.9-13-29.58-26.34-29.55-26.48l-7.19-1.87
						l-7.1-2.19c-0.8,2.61-6.56,26.04,38.23,44.29c8.48,3.46,18.24,6.78,28.43,9.89C383.1,509.5,392.81,507.13,402.62,505.19z"/>
					<path class="st2" d="M693.15,458.34l-14.29,4.06c0.03,0.14,2.35,13.47-29.55,26.48c-28.83,11.75-69.94,21.37-95.6,25.31
						c0.15,0.72,0.34,1.42,0.45,2.15c0.68,4.42,0.46,8.82-0.63,12.86c28.37-4,72.14-14.65,101.38-26.57
						C699.7,484.39,693.95,460.96,693.15,458.34z"/>
				</g>
			</g>
			<g>
				<g>
					<path class="st2" d="M327.4,521c0.02-12.13,0.64-23.81,1.85-34.69l-14.77-1.63c-1.29,11.63-1.95,24.08-1.95,37.01
						c0,0.13,0.01,0.27,0.01,0.4C317.5,521.79,322.45,521.42,327.4,521z"/>
					<path class="st2" d="M664.78,601.9c2.46,0.46,4.89,1.16,7.14,2.24c0.75,0.35,1.18,0.55,1.46,0.69
						c0.71,0.27,1.42,0.56,2.15,0.81c1.07,0.38,2.16,0.71,3.25,1.07c5.64-28.49,8.7-57.3,8.7-85.02c0-12.91-0.66-25.36-1.95-37.01
						l-14.77,1.63c1.23,11.11,1.86,23.01,1.86,35.37C672.61,547.84,669.87,575.01,664.78,601.9z"/>
					<path class="st2" d="M459.02,817.45c-22.56-11.51-43.36-31.94-61.45-58.09c-4.44,1.59-9.27,3.03-14.15,3.87
						c21.76,32.46,47.47,57.53,75.6,70.25V817.45z"/>
					<path class="st2" d="M637.68,693.39c-24.28,58.83-59.52,106.92-100.26,125.81v15.85c43.16-17.75,80.84-64.75,107.64-123.28
						C641.61,706.05,639.06,699.83,637.68,693.39z"/>
					<rect x="551.49" y="562.5" class="st2" width="14.86" height="102.62"/>
					<circle class="st2" cx="558.92" cy="665.12" r="25.43"/>
					<path class="st2" d="M455.47,487.32l-180.16,37.66l15.65,74.88c1.14-0.11,2.26-0.23,3.5-0.18c4.41,0.17,8.38,0.79,12.01,1.74
						l-13.57-64.93l151.07-31.58l47.41,226.82L340.3,763.3l-10.41-49.79c-2.81,6.04-7.46,9.8-12.76,11.59l11.66,55.79l180.16-37.66
						L455.47,487.32z"/>
					<path class="st2" d="M332.93,611.04c-6.5-16.17-16.52-20.77-23.78-21.78c-13.4-1.84-27.93,7.02-39.57,16.93
						c5.98-15.86,13.39-32,20.85-46.89c-0.77-1.62-1.49-3.39-2.04-4.95c-0.14-0.39-0.24-0.77-0.33-1.18
						c-0.45-2.13-0.86-4.88-0.94-7.05c-0.02-0.43-0.01-0.84,0.03-1.27c0.01-4.23,1.08-8.17,3.2-11.83l3.66-4.74
						c4.22-4.6,10.51-6.59,16.57-6.86c0.07,0,0.15,0.01,0.22,0.01c8.81-15.37,15.18-25.37,15.41-25.72l-12.5-8.04
						c-3.46,5.38-84.51,132.37-70.39,191.53c9.23,38.66,33.11,64.21,59.76,64.21c0.52,0,1.04-0.01,1.57-0.03l0-0.04
						c11.69-0.04,21.59-5.52,28.64-15.9C351.56,700.57,347.46,647.15,332.93,611.04z M321,719.1c-4.32,6.36-9.73,9.57-16.59,9.4
						l-0.32,0.04c-19.61,0.88-38.73-20.96-46.32-52.78c-2.48-10.39-1.36-23.59,2-38.07c11.44-14.43,33.64-35.58,47.34-33.7
						c1.82,0.26,7.38,1.03,12.03,12.6C333.56,652.42,334.41,699.37,321,719.1z"/>
					<path class="st2" d="M686.29,487.68l-12.5,8.04c0.59,0.91,42.52,66.59,61.09,123.03c-23.47-12.45-67.4-32.27-95.07-23.23
						c-10.42,3.4-17.79,10.32-21.91,20.58c-9.92,24.67-4.21,56.51,15.27,85.17c17.37,25.56,41.74,42.04,62.19,42.1l0,0.03
						c0.52,0.02,1.04,0.03,1.57,0.03c26.64,0,50.53-25.55,59.76-64.21C770.8,620.04,689.74,493.05,686.29,487.68z M742.22,675.75
						c-7.59,31.81-26.45,53.52-46.32,52.78l-0.32-0.04c-0.05,0-0.09,0-0.14,0c-15.44,0-35.51-14.28-50-35.6
						c-16.69-24.56-21.84-51.2-13.77-71.27c2.44-6.07,6.61-9.99,12.73-12c25.41-8.27,75.84,17.12,96.12,29.31
						C743.66,652.94,744.63,665.67,742.22,675.75z"/>
					
						<rect x="583.34" y="538.01" transform="matrix(0.4992 -0.8665 0.8665 0.4992 -211.1532 804.9566)" class="st2" width="14.86" height="94.26"/>
					<path class="st2" d="M495.77,458.68c-25.5,0-47.81,13.64-60.22,33.95c4.87,0.88,9.5,3.15,13.07,7.07
						c9.87-15.69,27.29-26.17,47.15-26.17c30.72,0,55.72,25,55.72,55.72s-25,55.72-55.72,55.72c-8.96,0-17.4-2.18-24.91-5.95
						c0.53,4.86,0.96,9.75,1.15,14.67c0.03,0.67,0,1.3-0.02,1.93c7.44,2.68,15.42,4.21,23.78,4.21c38.92,0,70.58-31.66,70.58-70.58
						S534.69,458.68,495.77,458.68z"/>
				</g>
			</g>
			<path class="st2" d="M500,900.54c-25.77,0-46.74-20.97-46.74-46.74v-57.96c0-25.77,20.97-46.74,46.74-46.74
				c25.77,0,46.74,20.97,46.74,46.74v57.96C546.74,879.57,525.77,900.54,500,900.54z M500,763.96c-17.58,0-31.88,14.3-31.88,31.88
				v57.96c0,17.58,14.3,31.88,31.88,31.88h0c17.58,0,31.88-14.3,31.88-31.88v-57.96C531.88,778.26,517.58,763.96,500,763.96z"/>
			<g>
				
					<ellipse transform="matrix(0.9258 -0.3779 0.3779 0.9258 -105.4483 186.9089)" class="st2" cx="423.53" cy="362.14" rx="22.91" ry="20.15"/>
				
					<ellipse transform="matrix(0.9258 -0.3779 0.3779 0.9258 -92.4764 232.8097)" class="st2" cx="546.97" cy="352.04" rx="22.91" ry="20.15"/>
			</g>
			<g>
				<path class="st2" d="M341.08,565.2l113.89-23.28l1.69,8.3l-113.45,23.19C342.53,570.67,341.8,567.94,341.08,565.2z"/>
				<path class="st2" d="M349.82,601.58l112.99-23.1l1.69,8.3l-112.9,23.08C351.05,607.09,350.42,604.34,349.82,601.58z"/>
				<path class="st2" d="M357.82,638.1l112.83-23.07l1.69,8.3L360.4,646.23C359.61,643.5,358.7,640.8,357.82,638.1z"/>
				<path class="st2" d="M367.06,674.38L478.5,651.6l1.69,8.3l-111.66,22.83C368.06,679.94,367.59,677.15,367.06,674.38z"/>
				<path class="st2" d="M372.93,711.34l113.42-23.19l1.69,8.3l-113.94,23.3C373.71,716.95,373.31,714.15,372.93,711.34z"/>
			</g>
		</g>
		<g>
			<path class="st2" d="M435.55,426.19c0,0,10.23-11.81,21.11-17.88c24.37-13.59,57.56,11.38,57.56,11.38s-35.09-7.78-56.28-0.63
				C447.62,422.55,435.55,426.19,435.55,426.19z"/>
		</g>
	</g>
	<g>
		<path class="st2" d="M721.49,215.44l-13.57,4.65l-9.75-28.45l6.78-2.33c10.81-3.71,16.59-15.52,12.88-26.33
			c-3.71-10.81-15.52-16.59-26.33-12.89c-10.81,3.71-16.59,15.52-12.88,26.33l-13.57,4.65c-6.27-18.29,3.51-38.28,21.8-44.55
			s38.28,3.51,44.55,21.8c5.47,15.97-1.28,33.22-15.26,41.52L721.49,215.44z"/>
		<circle class="st2" cx="720.35" cy="234.21" r="10.14"/>
	</g>
</g>
</svg>
