<svg width="24" height="24" viewBox="0 0 24 24" fill="none" xmlns="http://www.w3.org/2000/svg">
<path d="M12 10.6875C11.4024 10.6873 10.8256 10.9067 10.3792 11.3038C9.93273 11.701 9.64771 12.2483 9.5783 12.8418C9.50888 13.4353 9.6599 14.0337 10.0027 14.5232C10.3454 15.0126 10.856 15.3592 11.4375 15.4969V17.25C11.4375 17.3992 11.4968 17.5423 11.6023 17.6477C11.7077 17.7532 11.8508 17.8125 12 17.8125C12.1492 17.8125 12.2923 17.7532 12.3977 17.6477C12.5032 17.5423 12.5625 17.3992 12.5625 17.25V15.4969C13.144 15.3592 13.6546 15.0126 13.9973 14.5232C14.3401 14.0337 14.4911 13.4353 14.4217 12.8418C14.3523 12.2483 14.0673 11.701 13.6208 11.3038C13.1744 10.9067 12.5976 10.6873 12 10.6875V10.6875ZM12 14.4375C11.7404 14.4375 11.4867 14.3605 11.2708 14.2163C11.055 14.0721 10.8867 13.8671 10.7874 13.6273C10.6881 13.3874 10.6621 13.1235 10.7127 12.8689C10.7634 12.6143 10.8884 12.3805 11.0719 12.1969C11.2555 12.0134 11.4893 11.8884 11.7439 11.8377C11.9985 11.7871 12.2624 11.8131 12.5023 11.9124C12.7421 12.0117 12.9471 12.18 13.0913 12.3958C13.2355 12.6117 13.3125 12.8654 13.3125 13.125C13.3125 13.4731 13.1742 13.8069 12.9281 14.0531C12.6819 14.2992 12.3481 14.4375 12 14.4375V14.4375ZM19.5 7.6875H15.9375V4.875C15.9375 3.83071 15.5227 2.82919 14.7842 2.09077C14.0458 1.35234 13.0443 0.9375 12 0.9375C10.9557 0.9375 9.95419 1.35234 9.21577 2.09077C8.47734 2.82919 8.0625 3.83071 8.0625 4.875V7.6875H4.5C4.1519 7.6875 3.81806 7.82578 3.57192 8.07192C3.32578 8.31806 3.1875 8.6519 3.1875 9V19.5C3.1875 19.8481 3.32578 20.1819 3.57192 20.4281C3.81806 20.6742 4.1519 20.8125 4.5 20.8125H19.5C19.8481 20.8125 20.1819 20.6742 20.4281 20.4281C20.6742 20.1819 20.8125 19.8481 20.8125 19.5V9C20.8125 8.6519 20.6742 8.31806 20.4281 8.07192C20.1819 7.82578 19.8481 7.6875 19.5 7.6875ZM9.1875 4.875C9.1875 4.12908 9.48382 3.41371 10.0113 2.88626C10.5387 2.35882 11.2541 2.0625 12 2.0625C12.7459 2.0625 13.4613 2.35882 13.9887 2.88626C14.5162 3.41371 14.8125 4.12908 14.8125 4.875V7.6875H9.1875V4.875ZM19.6875 19.5C19.6875 19.5497 19.6677 19.5974 19.6326 19.6326C19.5974 19.6677 19.5497 19.6875 19.5 19.6875H4.5C4.45027 19.6875 4.40258 19.6677 4.36742 19.6326C4.33225 19.5974 4.3125 19.5497 4.3125 19.5V9C4.3125 8.95027 4.33225 8.90258 4.36742 8.86742C4.40258 8.83225 4.45027 8.8125 4.5 8.8125H19.5C19.5497 8.8125 19.5974 8.83225 19.6326 8.86742C19.6677 8.90258 19.6875 8.95027 19.6875 9V19.5Z" fill="black"/>
</svg>
