<svg width="24" height="24" viewBox="0 0 24 24" fill="none" xmlns="http://www.w3.org/2000/svg">
<path d="M5.33328 5.46667H15.9999V6.53334H5.33328V5.46667ZM5.33328 10.8H10.7239V11.8667H5.33328V10.8ZM15.5853 8.13334H5.33328V9.20001H14.5193L15.5853 8.13334ZM8.52861 19.3813C8.70792 19.587 8.93552 19.7448 9.19094 19.8407C9.44637 19.9366 9.72161 19.9675 9.99194 19.9307H15.1939C15.3177 19.9307 15.4364 19.8815 15.5239 19.794C15.6114 19.7065 15.6606 19.5878 15.6606 19.464C15.6606 19.3402 15.6114 19.2215 15.5239 19.134C15.4364 19.0465 15.3177 18.9973 15.1939 18.9973H9.99194C9.38461 18.9867 9.49261 18.4593 9.57794 18.296C9.68919 18.1043 9.77588 17.8994 9.83594 17.686C9.8758 17.5143 9.85702 17.3343 9.78258 17.1745C9.70815 17.0148 9.58236 16.8846 9.42527 16.8047C9.17291 16.691 8.89023 16.6631 8.62053 16.7254C8.35082 16.7876 8.10895 16.9365 7.93194 17.1493C7.70261 17.386 7.38394 17.748 7.07861 18.1C7.26727 17.3607 7.51194 16.412 7.75194 15.4867C7.82072 15.2758 7.80702 15.0468 7.71362 14.8456C7.62022 14.6445 7.45406 14.4862 7.24861 14.4027C7.02108 14.3246 6.77241 14.3358 6.55279 14.4339C6.33316 14.532 6.15894 14.7098 6.06527 14.9313C5.77727 15.4853 3.49727 19.306 3.47461 19.3447C3.44318 19.3973 3.42242 19.4556 3.41352 19.5162C3.40462 19.5769 3.40775 19.6387 3.42273 19.6981C3.43771 19.7575 3.46425 19.8134 3.50083 19.8626C3.53741 19.9118 3.58333 19.9532 3.63594 19.9847C3.74221 20.0482 3.86933 20.0668 3.98935 20.0366C4.10938 20.0063 4.21247 19.9296 4.27594 19.8233C4.36128 19.68 6.18128 16.6313 6.75528 15.6133C6.32328 17.28 5.84728 19.1347 5.81928 19.3013C5.78776 19.4239 5.79722 19.5534 5.84621 19.67C5.89521 19.7867 5.98104 19.8841 6.09061 19.9473C6.21264 20.0079 6.35135 20.026 6.48486 19.999C6.61837 19.972 6.73907 19.9012 6.82794 19.798C6.91194 19.722 7.06928 19.5413 7.46594 19.0807C7.83552 18.646 8.21405 18.219 8.60128 17.8C8.74661 17.6467 8.83461 17.7147 8.74927 17.8653C8.58235 18.0763 8.4741 18.3276 8.43547 18.5938C8.39684 18.86 8.4292 19.1317 8.52927 19.3813H8.52861Z" fill="black"/>
<path d="M18.6667 14.4633V21.3333H2.66671V2.66665H18.6667V5.99531L19.5534 5.10865C19.6899 4.97403 19.8395 4.85342 20 4.74865V1.99998C20 1.82317 19.9298 1.6536 19.8048 1.52858C19.6798 1.40355 19.5102 1.33331 19.3334 1.33331H2.00004C1.82323 1.33331 1.65366 1.40355 1.52864 1.52858C1.40361 1.6536 1.33337 1.82317 1.33337 1.99998V22C1.33337 22.1768 1.40361 22.3464 1.52864 22.4714C1.65366 22.5964 1.82323 22.6666 2.00004 22.6666H19.3334C19.5102 22.6666 19.6798 22.5964 19.8048 22.4714C19.9298 22.3464 20 22.1768 20 22V14.2846C19.5911 14.5013 19.1182 14.5647 18.6667 14.4633V14.4633Z" fill="black"/>
<path d="M22.752 7.90736L22.4034 7.55869C22.5816 7.3232 22.6718 7.03279 22.6584 6.73778C22.645 6.44277 22.5288 6.16173 22.33 5.94336C22.072 5.71591 21.7345 5.59965 21.3911 5.61987C21.0477 5.6401 20.7263 5.79519 20.4967 6.05136L12.1467 14.4L11.5887 16.4947C11.5799 16.5221 11.5788 16.5514 11.5856 16.5794C11.5924 16.6074 11.6068 16.6329 11.6272 16.6532C11.6477 16.6735 11.6733 16.6878 11.7013 16.6944C11.7294 16.701 11.7587 16.6997 11.786 16.6907L13.8734 16.126L21.668 8.33136L21.9974 8.66136C22.0204 8.68433 22.0386 8.71161 22.0511 8.74163C22.0635 8.77166 22.0699 8.80385 22.0699 8.83636C22.0699 8.86886 22.0635 8.90105 22.0511 8.93108C22.0386 8.96111 22.0204 8.98839 21.9974 9.01136L18.7194 12.2894C18.6194 12.3894 18.5632 12.5251 18.5633 12.6666C18.5634 12.8081 18.6196 12.9437 18.7197 13.0437C18.8198 13.1437 18.9555 13.1998 19.0969 13.1998C19.2384 13.1997 19.374 13.1434 19.474 13.0434L22.752 9.76536C22.9984 9.51883 23.1368 9.18456 23.1368 8.83602C23.1368 8.48749 22.9984 8.15321 22.752 7.90669V7.90736Z" fill="black"/>
</svg>
